<?xml version="1.0" standalone="no"?>
<!DOCTYPE svg PUBLIC "-//W3C//DTD SVG 20010904//EN"
 "http://www.w3.org/TR/2001/REC-SVG-20010904/DTD/svg10.dtd">
<svg version="1.0" xmlns="http://www.w3.org/2000/svg"
 width="599.000000pt" height="599.000000pt" viewBox="0 0 599.000000 599.000000"
 preserveAspectRatio="xMidYMid meet">
<metadata>
Created by potrace 1.11, written by Peter Selinger 2001-2013
</metadata>
<g transform="translate(0.000000,599.000000) scale(0.100000,-0.100000)"
fill="#000000" stroke="none">
<path d="M2983 5973 c4 -3 3 -11 -2 -17 -17 -21 -100 -186 -94 -186 3 0 0 -8
-9 -17 -8 -10 -34 -58 -59 -108 -24 -49 -47 -91 -51 -93 -5 -2 -8 -11 -8 -21
0 -9 -4 -21 -9 -27 -5 -5 -64 -117 -131 -249 -67 -132 -130 -248 -139 -258
-18 -18 -91 -41 -91 -28 0 4 -12 12 -27 18 -16 7 -50 25 -78 41 -27 16 -67 39
-87 51 -168 95 -183 104 -200 119 -10 8 -18 12 -18 9 0 -4 -21 7 -47 23 -26
16 -48 29 -49 27 -1 -1 2 -25 7 -52 6 -28 14 -70 19 -95 4 -25 11 -56 14 -70
3 -14 12 -63 20 -110 8 -47 22 -117 30 -155 8 -39 17 -83 20 -100 3 -16 14
-75 25 -130 11 -55 22 -111 24 -125 3 -14 8 -43 12 -65 4 -22 10 -49 12 -60 2
-11 6 -29 8 -40 3 -18 27 -140 40 -205 3 -14 8 -38 10 -55 3 -16 13 -64 21
-105 9 -41 17 -82 19 -92 2 -9 7 -38 11 -65 3 -26 8 -56 10 -65 1 -10 -2 -18
-8 -18 -6 0 -9 -3 -5 -6 3 -3 -2 -14 -11 -24 -33 -34 -74 -43 -114 -26 -18 8
-98 84 -98 93 0 3 -12 17 -27 32 -25 23 -153 160 -319 340 -129 140 -213 225
-217 221 -3 -3 -33 -72 -67 -155 -77 -186 -103 -237 -127 -251 -19 -12 -62
-10 -133 5 -25 5 -57 12 -72 15 -69 15 -84 18 -103 21 -11 2 -20 4 -20 5 0 1
-9 3 -20 5 -11 2 -33 6 -50 9 -16 3 -33 6 -37 7 -4 0 -22 5 -40 10 -18 5 -46
12 -63 14 -31 5 -113 23 -252 54 -46 10 -83 17 -83 15 0 -1 16 -51 36 -111 20
-59 37 -112 38 -118 2 -5 6 -17 9 -25 3 -8 15 -46 27 -85 12 -38 25 -79 30
-90 4 -11 14 -40 21 -65 7 -25 15 -49 18 -55 3 -5 7 -19 8 -30 2 -11 7 -29 12
-40 16 -32 81 -243 81 -260 0 -43 -32 -76 -108 -111 -42 -20 -114 -54 -160
-75 -46 -22 -88 -39 -95 -39 -6 0 6 -16 26 -35 20 -19 41 -35 46 -35 5 0 11
-3 13 -8 1 -4 25 -25 53 -47 27 -22 59 -48 70 -59 11 -10 36 -30 55 -44 19
-15 37 -30 40 -33 3 -3 27 -22 53 -42 26 -20 54 -42 62 -49 7 -7 28 -25 46
-40 19 -14 102 -81 184 -147 83 -67 157 -127 165 -134 37 -29 176 -143 186
-152 6 -5 26 -21 44 -35 18 -14 41 -32 51 -40 9 -8 32 -26 49 -40 18 -14 37
-30 44 -35 6 -6 45 -38 86 -70 173 -138 174 -140 123 -274 -14 -36 -26 -70
-27 -76 -2 -12 -35 -102 -47 -130 -11 -26 -69 -188 -69 -193 0 -4 77 4 120 13
14 3 39 7 55 10 17 2 41 7 55 9 13 3 42 8 65 11 22 3 47 8 55 10 8 2 31 6 50
9 19 3 46 8 60 10 14 3 77 14 140 26 63 11 125 22 137 24 11 3 43 8 70 12 53
9 62 11 66 13 1 2 18 4 37 6 31 4 57 8 165 29 17 3 44 8 60 11 17 2 48 8 70
12 80 15 149 8 179 -18 55 -48 59 -79 41 -359 -9 -144 -22 -410 -29 -578 -2
-51 -6 -95 -9 -98 -3 -4 -2 -16 3 -29 5 -13 6 -26 2 -30 -4 -3 -8 -34 -9 -68
-1 -34 -4 -101 -7 -149 l-5 -88 133 0 133 0 -1 85 c-1 47 -3 85 -6 85 -3 0 -6
35 -6 78 -1 42 -4 129 -8 192 -3 63 -8 160 -11 215 -3 55 -8 145 -10 200 -6
113 -13 238 -19 372 -5 105 8 142 64 180 28 19 42 22 102 18 39 -3 73 -7 77
-9 3 -2 51 -12 106 -21 55 -9 111 -19 125 -21 14 -3 39 -7 55 -10 17 -3 41 -8
55 -10 14 -3 36 -7 50 -9 31 -5 65 -11 205 -36 61 -11 124 -22 140 -24 17 -3
41 -7 55 -10 14 -3 54 -10 89 -16 36 -5 67 -12 71 -14 4 -2 25 -5 48 -6 23 -2
42 -6 42 -9 0 -3 8 -6 18 -6 9 -1 43 -4 76 -9 58 -8 58 -8 51 16 -4 13 -10 26
-14 29 -3 3 -7 13 -9 23 -2 10 -35 105 -74 210 -38 106 -70 204 -70 219 1 27
30 88 43 88 5 0 77 56 164 128 20 17 102 83 138 112 11 8 24 20 31 25 6 6 58
48 116 94 58 47 112 92 121 100 9 9 29 25 44 36 33 23 209 165 305 245 27 23
46 38 155 125 55 44 105 85 111 90 6 6 25 21 43 35 18 14 38 30 44 35 7 6 36
30 66 53 l53 42 -108 51 c-211 97 -238 113 -253 143 -16 34 -10 64 44 229 18
53 30 97 28 97 -3 0 -1 6 4 13 6 6 25 59 42 117 18 58 36 114 41 125 8 18 43
124 45 135 3 20 48 158 56 172 11 21 12 41 2 35 -7 -4 -248 -57 -283 -62 -8
-1 -22 -5 -30 -8 -8 -3 -28 -8 -45 -10 -16 -3 -41 -8 -55 -11 -49 -12 -85 -18
-102 -18 -10 1 -18 -3 -18 -8 0 -5 -9 -7 -20 -5 -11 2 -20 1 -20 -3 0 -4 -10
-7 -22 -8 -13 0 -71 -11 -130 -23 -160 -33 -150 -44 -279 269 -28 69 -53 127
-56 130 -4 5 -41 -32 -228 -234 -60 -65 -130 -140 -155 -166 -127 -135 -224
-240 -229 -248 -3 -4 -20 -18 -37 -30 -40 -28 -99 -19 -132 20 -12 16 -17 80
-8 118 8 34 19 92 19 108 0 6 3 12 6 12 3 0 7 10 7 23 2 35 24 151 61 327 3
14 6 37 7 53 0 15 4 27 8 27 3 0 5 8 3 18 -1 9 0 22 4 27 6 11 9 25 16 75 2
19 7 46 10 60 3 14 8 36 11 50 2 14 9 48 14 75 6 28 12 61 15 75 3 14 11 59
20 100 19 97 25 128 31 165 3 17 12 62 20 100 8 39 17 86 20 105 3 19 9 53 14
75 5 22 8 40 7 42 -2 1 -34 -16 -72 -39 -118 -69 -139 -80 -180 -102 -22 -12
-42 -24 -45 -27 -3 -3 -36 -23 -75 -44 -38 -21 -73 -44 -77 -49 -5 -7 -8 -7
-8 -1 0 6 -4 5 -8 -2 -10 -16 -85 -32 -97 -21 -6 4 -22 17 -36 28 -15 11 -30
32 -34 47 -3 15 -10 30 -13 33 -7 5 -28 45 -239 465 -59 116 -110 212 -115
213 -4 2 -8 9 -8 15 0 25 -96 206 -109 206 -8 1 -11 -2 -8 -6z"/>
</g>
</svg>
